<svg width="202" height="38" viewBox="0 0 202 38" fill="none" xmlns="http://www.w3.org/2000/svg">
<path d="M7.992 3.736V30.76H20.952L20.136 37H0.12V3.736H7.992ZM45.5906 23.752C45.5906 24.808 45.5426 25.72 45.4466 26.488H29.6546C29.9106 28.632 30.5186 30.136 31.4786 31C32.4386 31.864 33.7666 32.296 35.4626 32.296C36.4866 32.296 37.4786 32.12 38.4386 31.768C39.3986 31.384 40.4386 30.808 41.5586 30.04L44.6786 34.264C41.7026 36.632 38.3906 37.816 34.7426 37.816C30.6146 37.816 27.4466 36.6 25.2386 34.168C23.0306 31.736 21.9266 28.472 21.9266 24.376C21.9266 21.784 22.3906 19.464 23.3186 17.416C24.2466 15.336 25.6066 13.704 27.3986 12.52C29.1906 11.304 31.3346 10.696 33.8306 10.696C37.5106 10.696 40.3906 11.848 42.4706 14.152C44.5506 16.456 45.5906 19.656 45.5906 23.752ZM38.1506 21.592C38.0866 17.688 36.7106 15.736 34.0226 15.736C32.7106 15.736 31.6866 16.216 30.9506 17.176C30.2466 18.136 29.8146 19.72 29.6546 21.928H38.1506V21.592ZM60.891 10.696C64.795 10.696 67.851 11.896 70.059 14.296C72.267 16.664 73.371 19.992 73.371 24.28C73.371 27 72.859 29.384 71.835 31.432C70.843 33.448 69.403 35.016 67.515 36.136C65.659 37.256 63.451 37.816 60.891 37.816C57.019 37.816 53.963 36.632 51.723 34.264C49.515 31.864 48.411 28.52 48.411 24.232C48.411 21.512 48.907 19.144 49.899 17.128C50.923 15.08 52.363 13.496 54.219 12.376C56.107 11.256 58.331 10.696 60.891 10.696ZM60.891 16.264C59.355 16.264 58.203 16.92 57.435 18.232C56.667 19.512 56.283 21.512 56.283 24.232C56.283 27.016 56.651 29.048 57.387 30.328C58.155 31.608 59.323 32.248 60.891 32.248C62.427 32.248 63.579 31.608 64.347 30.328C65.115 29.016 65.499 27 65.499 24.28C65.499 21.496 65.115 19.464 64.347 18.184C63.611 16.904 62.459 16.264 60.891 16.264ZM92.8103 10.696C95.0183 10.696 96.7463 11.368 97.9943 12.712C99.2423 14.056 99.8663 15.944 99.8663 18.376V37H92.2823V19.672C92.2823 18.392 92.0743 17.512 91.6583 17.032C91.2743 16.52 90.6823 16.264 89.8823 16.264C88.3463 16.264 86.8743 17.368 85.4663 19.576V37H77.8823V11.512H84.5063L85.0343 14.536C86.1223 13.256 87.2903 12.296 88.5383 11.656C89.8183 11.016 91.2423 10.696 92.8103 10.696ZM125.841 29.608C125.841 30.568 125.969 31.272 126.225 31.72C126.513 32.168 126.961 32.504 127.569 32.728L125.985 37.672C124.417 37.544 123.137 37.208 122.145 36.664C121.153 36.088 120.385 35.192 119.841 33.976C118.177 36.536 115.617 37.816 112.161 37.816C109.633 37.816 107.617 37.08 106.113 35.608C104.609 34.136 103.857 32.216 103.857 29.848C103.857 27.064 104.881 24.936 106.929 23.464C108.977 21.992 111.937 21.256 115.809 21.256H118.401V20.152C118.401 18.648 118.081 17.624 117.441 17.08C116.801 16.504 115.681 16.216 114.081 16.216C113.249 16.216 112.241 16.344 111.057 16.6C109.873 16.824 108.657 17.144 107.409 17.56L105.681 12.568C107.281 11.96 108.913 11.496 110.577 11.176C112.273 10.856 113.841 10.696 115.281 10.696C118.929 10.696 121.601 11.448 123.297 12.952C124.993 14.456 125.841 16.712 125.841 19.72V29.608ZM114.369 32.392C116.097 32.392 117.441 31.576 118.401 29.944V25.432H116.529C114.801 25.432 113.505 25.736 112.641 26.344C111.809 26.952 111.393 27.896 111.393 29.176C111.393 30.2 111.649 31 112.161 31.576C112.705 32.12 113.441 32.392 114.369 32.392ZM145.706 10.792C146.634 10.792 147.482 10.904 148.25 11.128L147.05 18.472C146.09 18.248 145.322 18.136 144.746 18.136C143.242 18.136 142.09 18.664 141.29 19.72C140.522 20.744 139.914 22.296 139.466 24.376V37H131.882V11.512H138.506L139.13 16.456C139.706 14.696 140.57 13.32 141.722 12.328C142.906 11.304 144.234 10.792 145.706 10.792ZM172.543 1.384V37H165.823L165.439 34.024C163.647 36.552 161.231 37.816 158.191 37.816C155.023 37.816 152.607 36.6 150.943 34.168C149.311 31.736 148.495 28.408 148.495 24.184C148.495 21.592 148.927 19.272 149.791 17.224C150.655 15.176 151.871 13.576 153.439 12.424C155.039 11.272 156.863 10.696 158.911 10.696C161.343 10.696 163.359 11.496 164.959 13.096V0.567997L172.543 1.384ZM160.543 32.248C162.303 32.248 163.775 31.288 164.959 29.368V18.376C164.351 17.64 163.727 17.096 163.087 16.744C162.479 16.392 161.775 16.216 160.975 16.216C159.567 16.216 158.447 16.872 157.615 18.184C156.783 19.496 156.367 21.512 156.367 24.232C156.367 27.208 156.719 29.288 157.423 30.472C158.159 31.656 159.199 32.248 160.543 32.248ZM189.516 10.696C193.42 10.696 196.476 11.896 198.684 14.296C200.892 16.664 201.996 19.992 201.996 24.28C201.996 27 201.484 29.384 200.46 31.432C199.468 33.448 198.028 35.016 196.14 36.136C194.284 37.256 192.076 37.816 189.516 37.816C185.644 37.816 182.588 36.632 180.348 34.264C178.14 31.864 177.036 28.52 177.036 24.232C177.036 21.512 177.532 19.144 178.524 17.128C179.548 15.08 180.988 13.496 182.844 12.376C184.732 11.256 186.956 10.696 189.516 10.696ZM189.516 16.264C187.98 16.264 186.828 16.92 186.06 18.232C185.292 19.512 184.908 21.512 184.908 24.232C184.908 27.016 185.276 29.048 186.012 30.328C186.78 31.608 187.948 32.248 189.516 32.248C191.052 32.248 192.204 31.608 192.972 30.328C193.74 29.016 194.124 27 194.124 24.28C194.124 21.496 193.74 19.464 192.972 18.184C192.236 16.904 191.084 16.264 189.516 16.264Z" fill="#141414"/>
</svg>
